<mxfile host="app.diagrams.net" modified="2024-06-06T10:56:27.084Z" agent="Mozilla/5.0 (X11; Ubuntu; Linux x86_64; rv:126.0) Gecko/20100101 Firefox/126.0" version="24.4.15" etag="ICX74r1c6qK5i992_QZ5" type="github">
  <diagram name="Pagina-1" id="7EW9-110yg91L9QbzU5F">
    <mxGraphModel>
      <root>
        <mxCell id="0" />
        <mxCell id="1" parent="0" />
      </root>
    </mxGraphModel>
  </diagram>
</mxfile>
